<?xml version="1.0"?>
    
<!--********* Copyright (c) 2024 Pareto Softare, LLC DBA Simplemaps.com ***************************************
************* Free for Commercial Use, full terms at  https://simplemaps.com/resources/svg-license ************
************* Attribution is appreciated! https://simplemaps.com *******************************************-->

<svg baseprofile="tiny" fill="#6f9c76" height="1000" stroke="#ffffff" stroke-linecap="round" stroke-linejoin="round" stroke-width=".5" version="1.2" viewbox="0 0 1000 1000" width="1000" xmlns="http://www.w3.org/2000/svg">
 <g id="features">
  <path d="M817.2 766.5l2 9.2 0.4 4.6-2.4 23.3 2 36.2 0.4 3.9 1.5 7.6 5.1 15.4 0.2 1.5 0.3 1.6-1.3 2.4-2.8 2.9-3.3 2.2-2.8 0.2-1.7-1.9-1-3.1-1.1-6.1-2.8-6.1-3.6-0.9-4.7 1-6-0.5-3.2-1.1-1.5-0.9-1.2-1.2-1-2.7-0.3-2.5-0.6-2.5-1.9-2.5-4.5-1.6-5.4 6.6-4.5-0.1-2.3 0.4-1.6 2.9-1.9 6.5-3.9 5.7-0.8 2.7 0 2.9 1 6.1-0.2 2.9-0.8 4.5-0.5 2.4 0.8 2.7 1.1 2.1 3.3 3.1 1 2.3 0.8 2.3 5.8 4.9-1 5.8-0.2 6.3 0.7 6.2 1.4 5.5 4.1 6.2 0.7 1.6 0.3 2.9 2.6 7.9 1 2 0.4 1.6-0.3 1.6-1.2 1.1-0.9-0.5-0.7-1-0.7-0.7-1.2-1.3-3.2-7.9-9.7-17.6-2.3-9.8-1-1.6-7.3-6.3-1.4-1.9-2.3-4.5-1.6-2.4-6.3-7.4-1-2.5-0.2-3.2 1.2-9.8-0.3-3.6-0.7-2.9-7.9-14.4-1.3-1.4-1.5-0.9-1.4-2.2-1-2.7-0.4-2.5 0.9 0 0.3 0.5 0.1 0.1 0.2 0 0.4 0.3 1.1-2.7 1.7-2.8 2.3-1.7 2.6 1-1.8-1.7-1.4-2.8-0.8-3.1 0.1-2.9 1.2-1.7 1.9-1.8 1.4-2.1-0.6-2.6 2.1-2.6 0.5-1.1-0.6-1.5 0.8-1.4-0.2-1.3-1.1-1-0.8-0.3 0.4-1.6 0.5-1.4 0-1.3-0.5-1.2-0.2 1.2-0.3 0.5-0.6 0.5 1.1 0-1.9 5.2-1.6 2.2-2.4-0.1-1.1-1.8 0.4-2.4 0.8-2.4-0.1-1.8-1 0-0.7 2.6-1.3-0.2-1.3-1.8-0.5-2.2 0.4-3.4 1.3-0.8 1.8-0.4 2.2-2.1-0.9-1-2.3 1.7-1-1.3 0.9-2.3 3.3-1.3 0-1.1-6.6 0.5-2.7 1-2.2 0.6-1.4-1.3 0.3-3.6 1.5-3.3 2.5-1.3-1.1-1.5 0.6-1.5 1.5-1.2 1.9-0.9 0-1.1-1.5 0.2-1.3 0.6-1.1 1.1-0.9 1.4-0.8-1.9-0.7-3.1-0.6-6.1-0.4-1.5-2-2.3-0.5-1.4 0-5.7-3.6-15.6-0.2-5.3 1.5 0.6 0.4 0.4-0.7-2-1.3 0.3-1 1.9 0 2.9-0.9 0-1.5-2.6-1.4-3.3-0.9-3.8-0.1-3.7 0.7-2.4 1.3-1.5 1.2-1.1 0.7-1.4-0.2-2.5-1.2-1.3-1.5-0.7-1-0.8-0.4-3.8 2.5-1.8 3.6-1.1 3.1-1.7 1.5-2.7 3.3-10.8-0.9 0.1-2-0.1-0.3 2.3-1.4 5.9 0.3 1.2-1 0.8-1.6 1.7-2.2 1.8-2.5 0.9-0.4 0.8-3.5 1.8-1 1.6 0.4 2.4 1.5 1.1 1.7 0.7 1.3 1 0 2.9-2.4 1.9-3.1-0.3-2.2-3.4-2.4-17.5-1.6-5.5-9.5-18.9-18.1-25.4-4.5-1.8-2.5-2.3-2-2.8-1.1-2.4-1.1 0.6-0.9-0.8-0.6-1.5-0.3-2 0.3-1.8 1.3-1.9 0.9-4.5 2.3-6.5 0-3.6-1 0-0.5 2.8-2.4 8.1-1.4 1.6-3.1 1-2 2.5-0.7 3.4 0.4 3.7-2.1-1.6-2.1-1-2.3-0.5-3.1-0.1 0 1.1 3 0.9 0.3 1.4-1.4 1.4-2.5 0.6-7.3 0.1 2.6 0.9 2.3 1 1.1 0.9-0.5 2.3-1.7 1.3-2.4 0.6-2.3 0.1-0.1-0.1-4.4-1-0.6 0.2-0.5 0-0.2-0.6 0.1-2.3-0.1-0.5-1.7-0.6-2.1-0.3-4.9 0 0 0.9 1.8 1.7 0.7 1.6-1 1.1-3.3-0.1 0 1.2 8.2 2.1 3.7 1.6 1.6 3-0.5 2-1.1 2.1-1.6 5.9-2.9 2.8-2.6 2.2-3.7 1-7 1.4-5.4-2.6-2.8-4.2-1.5-6.5-1.4-1.9-1.5-2.7-1.6-4.6-1.2-1.4-2.1 0.7 2.1 2.2 2 4.2 1.1 4.5-0.3 2.9-2.9 1.4-4.6 0.8-4.3-0.2-1.8-1.6-0.9-2.1-3.9-2.8-0.9-1.4-0.4-1.4-2.1-2.8-1.1-4.3-1.5-0.7-4.2 0.4-0.6-0.9-1.7-5.5-1.1-0.9-1.3-0.6-1.1-0.8-0.9-2.7-2-2.9-0.5-1.1-0.2-1.6-1.7-4.2-1-5.2-1.2-2.7-1.3-2.3-1-2.5-0.4-3.5-0.7-1.9-11-14.9-1.5-4.1-0.3-1.7 0-1.7 1.6-9.4 0.2-6.3 0.8-3.4 1.6-3 1.2-2.8-0.6-2.9 0.9 0-2.4-5.1-0.1-2 1.6-1.3-0.5-0.2-0.4 0-0.2-0.2 0-0.8-3.5 1.3-2.5-3.3-1.3-4.6-0.4-2.9 0.2-9 1.2-3.5 3.5-2.2 8.2 0.1 3.3-1.9 0.1-5.7-0.6-2.1-0.8-0.8-1.4-0.2-2.5 0.1-0.4 0.6 1.3 1.4 2.5 2.1-1 3.2-2.5-1.5-1.5-0.1-2.7 1.6-3.6 1.2-2.1 1.3-0.6-0.5-2.1-6.1 0.5-4.4 2.3-3.6 3.6-1.6-0.9-1.1-0.3 0.6 0 0.2-0.2 0-0.6 0.3-1.1-1.5-2.3 0.3-5.2 2.1 0.8 2.2-0.7 1.3-1.7 0.6-2.2 0.2-2.4-0.2-1.8-0.6-3.6-2.3 1.1 2.4 2 1.5 2.3 0.9 2.4 0.4 5.2 0.2 1.2 1.3 0.3 13.8-0.5 1.7-1.1 0.9-1.1 2.2-0.9 2.8-0.3 2.4-4.7-2.1-27.7-5.4-5.4-1.9-4.8-3.2-0.1 1.7 1.3 1.7 18.3 11.1 2.3 1.9 1.3 1.9 0.9 1.9 1.2 1.5 4.5 0.9 3.9 2 2.2 0.8 9.3 1 1.1 1.1 4.2 6.3 0.6 2.5 0.5 5.5-0.6-0.9-1.1-1.5-1.3-1.4 0.7 3 0.7 9.1-0.6 3.7-3.8 5.5-0.9 0.9-1.7-0.5-0.3-1.2 0.6-1.6 1.4-1 0-1.1-1 0-1.6 2.1-1.5 1.6-2 1-2.7 0.7-5.3-0.2-1.7 0.7-0.7 2.5 0.2 1 0.6 3.4 1.9 4.8 2.7 4.6 2.8 3.7 0.3 0.8-0.2 1.8 0.4 1.1 0.3 0.1 0.6 0.1 0.6 0.2 0.4 0.5 1.7 1.3 0.6 1.1-0.8 1.4-2.1 1.1-2.1-0.2-2-0.6-2 0.2-2.7 3.4-1.3 5.1-1.7 4.3-4 0.9 2.3 2-0.6 2.1-1.9 0.8-1.7-1.8-3.1 2 2.1 1.6 4 1.3 2.8 1.4 1.3-2.8 2.4 0.4 2.4 2.2 1.6 2.2 0.4 1.6 0.5 4.8 1.8 4.9 0.5 5.4-0.4 1.1-1.4 1.8-1.2 0.7-3.2 0.5-1.4 0.8-0.8 2.3-1.6 8.5 0 2.3 0.4-1.6 0.9-0.9 1-0.7 0.6-0.9 0.2-1.6-0.5-3.1 0.3-1.6 1.4-2.1 2.1-1.3 2.5-0.3 2.7 0.4 5.1 3.2 2.5 4.4 1.7 5.1 2.4 5.3-2.2-0.7-0.7-0.4 0 3.4 1 2.8 2.8 5.4 0.8 3.1 0.1 3.2-0.9 6.3-4.5 11.7-3.3 5.3-2.8 0.7-3.7 2.1-1.5 1.3-0.7 1.3-0.3 2.1-0.8 2.4-4.1 7.1-1.4 1.7-1.6 0.8-1.8-0.5-2.4-1.1-2.1-1.3-0.9-1.2 0.8-3.8 3.4-7.3 0.6-3.6-1.6-4.3-0.3-2 0.9-4.8-0.5-1.9-2.3-0.7 0.6 3.2-1.4 6.8 0.3 2.2 1.1 1 1 0.4 0.7 0.6 0.5 1.5-0.2 1.2-0.7 1-1.1 1.1-0.1 0.3-0.3 0.2-0.3 0.6-0.4 2.1-0.5 0-0.7-0.4-0.6 0.3-0.4 1.6-0.4 4.7-0.6 1.9-0.6 1.4-2.6 3.9-1.8 2.1-0.3 0.5-0.6 2.7-2.8 5.6-0.6 2.8-0.6 5.8-1.3 5.7-1.1 2.9-1.4 2.1-7.8 6.7-2 1.3-2.7 0.6-2.8-0.5-5.4-2.2-2.5-0.5-2.2-1.3-0.7-2.5 1-1.9 2.4 0.5-1-2.2 0.8-1.5 1.4-1.4 0.8-1.8-0.3-1.3-0.4-0.8 0-1 0.7-1.6-1.5 1.9-2.5 6.3-1.3 1.3-1.4 0.4-1.7 2.1-1.3 0.6-1.2-0.2-1.9-1.6-1.6-0.2 0.9-4.1 0.4-8.2 1.6-3.5 1.3-1.1 1.6-1 1.6-1.2 1.2-1.9 0.7-2.3 0.3-1.9 0.5-1.9 1.4-2.1 5.8-5.3 0.7-0.9 1-1.9 0.7-0.9 1.3-0.6 1.2 0.3 1.1 0.6 0.8 0.2 3-2.1 2.2-3.4 1-4-0.4-4.1-2.5 6.6-1.8 3.5-2 1.5-3.8 0.5-2.3 1.3-8.4 9.1-1 1.6-1.2 3.3-1.8 2.8-0.4 1.1-0.8 0.7-2 0.4-1.4-0.2-4.5-1.9 0.8-2.1 0.2-2.3 1-1.8 1.4-1.2 1.2-0.6 0.9-1.1 0.4-2.3-0.5-4.6 0.6-1.7 0.6-2.3 1.3-1.5 1.6-0.7 1.3-1 0.8-1.8-3.7 1.3-1.7 2.7-2.2 7.5-1.3 1.7-3.8 3.8-0.8 1.2 0.3 6.9-0.3 2-2.1 1.8-2.6-0.9-2.2-2.6-0.8-3-0.3-1.5-1.3-3.5-0.4-1.8-0.3-11.2-1.3-6.3-0.3-3.9-0.4-1.5-1.8-2.8-0.7-1.5-0.5-2-0.2-1.6 0.2-1.7 0.5-2.1 2.8-6.9 11.7-17.1 0.8-1.9 0.5-1.8 0.8-1.7 1.7-1.4-3.8 2.6-0.5 0.4-4.5 4.7-2 2.5-0.7 2.4-1.1 2.4-2.5-0.7-4.3-3.4 0.3 3.2 0.8 2.6 0.5 2.6-0.5 3.3-5.9 11.4 1.7 3.2 1.5 5.4 1.6 10.3 0.2 5.3-0.4 2.6-1.2 2-2.3 1.3-2.1-0.2-2.2-0.6-2.7 0 0 1.1 3 1.3 2.5 1.6 1.7 2.4 0.6 3.6-0.1 1.4-0.8 2.8 0.1 1.6 0.5 1.4 2 3 1.1 2.9 1.4 1.7 0.8 2-1 2.4-1 0.4-3.2 0.6-3.6 3.3-0.8 1-0.3 0.7-0.5 0.6-1.3 0.8-2.6 1-1.5 0.2-0.6-0.7-0.8-2.2-1.7 0.4-2.2 1.5-1.7 0.8-2.4-0.2-2.7-0.5-2.4-1-1.7-1.4-0.6-1.2-0.5-1.6-0.1-1.7 1.5-2.6-0.3-1.5-2-2.9-4 8.4 1.7 2.8 2.7 3.8 3.1 3.4 2.9 1.4 1.2 1.5-1.5 3-3.1 2.2-3.5-0.9-1.7-1.1-1.6 0-3.5 0.6-0.4 0.9 1.6 4 0.3 1.3-2.7 2.8-3-1.9-4-6.1 0.2-2.7-1.6-6.3 0.4-3.5 1.1-2 2.7-3.1 1-2.3 0.5-2.5-0.6-11.1 1.1-8.8 0.8-3.1 3.3-6.1 0.8-3.3-0.5-3.3-1.2-3.2-1.8-2.8-1.9-2.3-0.1-2.1 4.4-5.7 1.1-2.6 0.2-3.2 0.5-3.2 0.9-3 1.3-2.7-1.6 1.2-1.3 2-1.9 4.1-1.7 1.7-0.5 1.4 1.3 3.5-0.8 1.3-2.7 2.1-1.7 2.7 0.1 2 3 5.3 0.7 1.8 0.4 1.5 0 3.5-0.3 1.8-1.4 2.9-0.4 1.5-1.1 9.8-0.7 2.2-2.6 1.4-1.2-2.4-0.2-6.8 0.4-1.6 1.5-3.1 0.1-2-6.4-15.2-0.4-3.1 0.7-6.9-0.2-3-1.4-3.3-1 0-1.2 10.1 1.2 19.3 1 0 0.2-2.2 0.6-1.9 0.8-1.1 0.4 0.4 0.2 1.3 0.5 1.9 0.7 1.8 0.9 1.3 0.7 1.8-0.1 2.2-1.2 3.9-0.7 0.7-1.7 0.3-0.4 0.5 0.2 1.1 0.3 0.7 0.6 0.8 0.5 1.8 1.7 3.7 1.1 1.3 0.2 1.1-1.3 8.1-1.5 1.8-1.8 1.4-1.9 1.7-1.6 2.7-0.1 2.2 0.5 2.5 0.3 3.7-0.5 3.5-1.4 2.8-1.9 2.4-5.1 4.5-1.6 0.2-3.6-4.1-0.8-2.3-0.2-3.9 0.5-6.9 0.7-2.8 1.9-4.6 0.3-3.6-0.6-3.1-2.6-5.1-0.6-2.6-1.1 0-0.9 2.3 0.4 2 1 1.9 0.6 2.1 0 2.4-0.5 1.4-2.4 2.4-1.5 1.9-0.9 1.5-2.3 5.6-0.7 1.3-0.7 0-0.8-1.9-0.9 0 0 3.8 1.5 5.9-0.6 3.8-2.4 5.2 0.4 1.7 3 1.5-1.6 1.9-2.5 1.7-2.8 1.3-2.8 0.3-2.6-1.6-0.9-2.8 0.6-2.7 1.4-1.2 0.3-1.7-4.3-12.4-0.3-1.3 0-1.8-0.6-0.7-1.4 0.9-1.3 1.5-0.6 1.3-0.8 0.7-1.9-0.5-3.1-1.6-1.5-1.3-0.6-1-3.5-12.4-0.3-2.6 0.4-3.1 1.5-6.4 0.1-3.6-1.1-3.2-3.1-4.3-0.7-2.4 0.9-7-0.4-2.9 0-0.1 2.5-3.1-0.3-3.7-0.8-3-1.2-2.5-6.1-8.2-1.4-3.2 2.1-1.4-2.4-4-0.8-1.9-1.6-8.1-0.1-1.5 0.4-1.6 1.2-2 0.3-1.2-0.6-3.6-2.6-6-1.3-5.7-1.7-1.4-4.4-1.7 3.2-2.1 0.9-3.5-0.7-4.2-1.3-3.9-1.8-3.2-0.5-3.4-0.5-2-1.7-4.4-0.4-2.8 1-2.1 1.6-1.9 1.5-2.4 0.6-2 0.6-3 0.2-3-0.3-2.1-1.6-1.5-4-1.3-1.6-2-3-7.2-1.5-2.4-2.7-3.4-0.6-1.8 0.1-3 1.3-4.4 0.4-7.8 1.9-3.9 7.7-8.2 3.8-3.2 1.2-1.4 0.7-1.7 0.1-1.2-0.8-0.8-3.9 0.2-1.3-0.4-1.1-0.5-9.9-3.5-2.4-0.5-1.9 0.3-1.2 0.8-1 0.9-1.1 0.6-1.5-0.1-9.3-3-1.9-1.7-1.4-3-0.1-3.3 1.3-3 3.4-5.5 6.9-18.3 0.3-3.3-1.9-1.5-1.8 1.4-1.7 2.6-1.7 0.7-2.1-4.2-1.6-0.7-4.1-2.9-2.4-2.5-3.3-6-2.1-2.3-1.1-0.3-2.8 0.3-1.5-0.6-1.3-1.5-0.1-1 0.4-1.2 0.3-1.9-0.7-0.6-1.5-0.3-1.3-0.6-0.2-1.8 3-14-0.2-1.5-1-2.3 0-1.5 0.7-1.6 2.1-3.3 0.7-1.8 0-1.4-0.3-1.4-0.2-1.4 0.5-1.5 2.3-1.8 2.7-0.1 3 0.2 2.7-0.5 1.9-1.5 5.3-5.3 1.4-1.8 0.4-2.8-0.4-3.3-0.8-2.9-1-1.8 1.8-3 1.6-2.2-0.1-1.5-3.4-0.8-0.4-2-2.7-2.3-0.6-1.8 0.1-1.4 0.9-3.2 0.2-1.8-0.7-3.2 0-1.5 0.8-1.9 1.4-1.3 3.2-1.2 2.2-1.1 0.4-1.3 1.7-2.4 0.5-1.4-0.4-0.6-0.3-2.6-0.3-0.6-0.8-6.1-3.2-4.4-4.7-2.9-3-0.7-1.5 3.6-2.1 3.3-3.2 0.2-6.9-2.4-9.2-0.5-3.2-0.7-10.5-8.3-37.1-19.6-4.1-0.9-0.3-1-1.3-2.3-1.2-1.6-0.6-0.6-0.1-0.8 0-8.1-0.5-0.9-2-2.2-1.5-3.1-2.3-1-2.7-0.8 0.8-4.7 1.2-2.8 1.8-2.7 0.7-6.9 1.5-0.6 1.8-0.3 1-1.5 0.2-2.1 0.4-1.9 0.9-1.1 1.9 0.4 1.3-2.9 2-1.9 1.4-2-0.4-3-1.9-5.4-0.6-1.3-0.8-0.8 0-0.7 7-3.9 2.6-0.9 2.8 0.3 2.3 1.6 2 2.6 1.2 3 0.2 2.9 1.7 0.1 5.9 1.6 2.4 0.2 1.3-1 2.5-4.6 5-6.5 1.7-3.6 0.4-4.1 3.3-4.1 1.6-4.6 1.2-10.3-0.4-8.8 1.4-2.6 4.9-0.8 2.3 0.6 4.4 1.8 3.8 1 0.7 0.3 0.6 0.1 1.6-0.4 1-0.7 1.8-1.9 1.2-0.5 5 0.1 4.3 0.9 8.5 3.2 8.4 0.8 1.2-0.9 1.4-3.3 0.9-1.1 1.2-0.3 0.9 0.3 0.9 0.6 9.7 3.4 3.6 0.2-2-3.3 2.5-0.5 0.4-1.6-0.4-2.1 0.2-2.1 1.2-1.6 5.3-4 1-1.5 0.4-1.6-0.3-1.4-1.1-1.3-6.9 0.3-3.3-0.4-2.4-2.5-0.8-0.7-3-0.2-1.4-0.4-1-0.8-3.4-4.2-0.6-1.7-0.1-1.5-0.4-1.3-1.5-1.2 0-0.9 2.4-5.6-0.2-3.3-1.3-2.1-1.8-1.6-1.7-2.1-1.3-1-4.3-1.7 0.1 2.7-1.4 0.7-1.3-0.1-1.3-0.2-1.1 0.2-1.5 1.3-1.2 1.5-1.3 1.2-1.6 0.5-3-0.7-4.6-3-2.7-1.3-6.1-0.3-2.9-0.5-1.4-1.5-1.1-2.2-3.8-3-1.4-3.1-5.4-2.7-1.9-2-0.7-9.6-3.7-4.2-10.3-7-8.5-10-4.6-2.4-6.3 1.8-2.4 1.4-2.8 1.2-2.6 0.2-1.8-2-1-2.9-0.6-1.4-2.3-2.5 0-1.4 0.2-1.4-1-2.4-1-6.9 0.4-0.8 0.7-0.5 0.8-1.1 2.6-8.9 2.7-5.3 3.6-2.8 1-3-0.2-1.8-0.8-0.8-0.9-0.6-0.5-0.8-0.2-1.5 0.2-0.8 0.5-0.9 1.5-5.1 1.2-1.9 4.7-3 1.2-1.1 0.9-1.1 1-1.1 1.5-0.6 2.9-0.6 8.3-2.8 2.5-1.6 1.1-2.3-0.2-5.8 0.5-2.3 2.2-3 2.1-2 6.6-4.2 1.1-1.3 0.7-1.5 0.8-0.7 1.4 1 1 0.4 1.3 0.1 1.4-0.2 1.1-0.3 3.1 0.5-0.3-4-2.8-8.5-2.1-3.4-3.7-1.8-8.2-1.6-3.3-1.5-1 0.1-0.5 1.1-0.4 3.6-0.6 1-1.9-0.6-1-2.1-0.2-2.6 0.8-2.1 1.8-3.1 2.9-10.2 1.1-2.2 1.7-3 1.8-1.8 1.3 0.8 0.2 2.9-0.1 3.4 0.4 3.1 1.9 2.2 5 1.5 2.2 1 1.9 2.2 1.7 1.5 1.5 1.7 1.2 1.1 2.8 2 3.3 1.4 1.1 0.1 3-0.1 1.7 0.8 1 1.5 0.8 1.8 1.1 1.5 1.5 1 1.5 0.7 3.3 0.8-0.6 1.3-0.3 1.3 0.4 1.1 1.2 0.4 1.1 0.5-0.2 2.8 0.8 1.2 3.3 1.6 1.9 1.5 0.3 2-1.3 2.9-1.8 1.6-5.2 2.6-1 1.1 2.4 1.9 12-4.5 5.1 2 1.1 2.4 0.9 2.7 1.4 2.2 2.4 1.1 2.2-0.8 2.1-5.2 2.9-2 3.8 0.7 6.2 6.3 4 1.4 6.3-1.6 2.8-2-0.7-3-1.5-0.4-1.7-0.1-1.1-1 0.6-3.4-1.4 0.9-1.2 0.3-1.2-0.4-0.9-1.2-1.3-4.5-3.5-1.9-4.1-1.4-2.9-3.1 0-2.7 1.1-2.9 1.8-2.7 1.8-1.7 2.3-1.1 1.3 0.3 1.3 1.4 2.2 1.7 1.6 0.8 2.2 2.4 1.3 1.1 1.5 0.6 3.1 0.9 1.3 1 0.6 1.9-0.4 1.3 0.1 1.1 2.4 1 3.4 1 1 1.1 0.1 2.2-1.3 0.7-2-1-1.6 0.2 0 4.2 1 2.6 2.8 4.7 1 2.6 1.2 9.5 1.1 2.8 1.7 2.1 9.4 4.1 2.1 1.3 1.5 2 0.8 3 1.2 1.5 5 2.3 3.4 3.9 2.6 1.8 2.8 1.3 2.3 0.3 2.3-1.4 1.7-1.5 1.7 0 2.1 3.2 0.7 0.3 0.7 0.1 0.7-0.1 0.7-0.3 7.7-0.7 0.7 0.1 0.7 0.2 0.7 0.4 2 3.5 1.2 1.7 1.4 0.7 1.9-0.4 1.1-1.4 0.3-2-0.1-2.1 1.2-4.3 6.2-5.2 1.2-2.7-1.1-1.9-1.8-0.1-2 0.4-1.4-0.7 0-1.9 1.5-1.3 2.1-1 1.7-1.1-2.7-0.3-2.3-1.2-0.9-1.9 1.5-2.9 0.9-0.8 1-0.5 1-0.1 2.9 0.9 0.1-0.8-0.9-1.8-0.3-4.8 0.9-1.3 3.1-1.1 2.6 0.5 0.7 2.4-0.1 3.2 0 3.5-0.3 0.6 0.4 0.3 1.7 0.8 1 0.2 2.9-0.3 1.2 0.1 1.7 1.4 0.8 2.3 0.7 2.6 1.1 2.2 1.8 2.6 0.2 1.9-0.3 2 0.2 2.8 0.8 1.4 2.9 3.8 1.1 2.1 0.7 1.1 0.9 0.3 0.9-0.4 1-1 0.1 0 0.2-0.2 0.2 0 0.2 0 0.2 0.2 1.9 2.4-0.4 2.2-2 1.6-2.8 1 2.7 1.6 2.2 0.2 1.1 0.9-0.6 3.8-6.1 10.8-0.5 3.9 2.6 14.1 3.2 7.9 1.4 6.2-1.3 11-0.3 11.8-2.1 7.8-1.1 4.1-0.2 1.6-0.6 4.5 0.5 5.3 1.3 5.6 1.6 3 2.2 0.4 5.1-2 5.3-0.2 31.4 13.3 22.2 4.9 11 4.7 4.9 0.2 14.4-3.1 11.6 1.1 5.7-1.5 2 0 1.6 0.6 3 1.4 5.3 0.9 1.2-0.1 0.8-0.5 1.5-1.6 0.8-0.4 2.2 0.3 1.8 1.1 1.8 1.3 2.1 1.1 3.9 0.4 16-2.2 1.2-0.1 4.5-1.6 22.6-3.7 7.9 0.3 1.7-0.3 3.1-1.6 1.5-0.1 6.8 3.6 21 6.4 5.5 0.7 1.4-0.3 2.8-0.9 1.5-0.2 1.7-0.4 2.4-2 1.2-0.5 2.4 0.2 1.1 1.2 0.9 1.8 2.3 1.8 2.4 0.6 3.6 0.2 3.3-0.5 1.4-1.5 0.8-2.5 1.6 0 1.8 0.9 1.3 0.4 1-0.8 0.8-1.9 0.9-0.9 2.2-0.3 6.8 0.6 15.1-1.9 7.9 1.2 2.7-0.8 3.7-1.2 4.6 0.2 4.5 1.1 3.8 1.5 1.1 0.9 1.4 2.2 0.8 0.9 1.1 0.4 2.1 0.1 1 0.7 0.7 0.3 2-0.6 1.1 0.3 0.9 0.8 2.1 2.7 2 1.7 1.7 1.2 1.9 0.9 2.6 0.6 7.3 1.1 1.2 0.8 2.3 3.3 4 1.7 3.5 2.1 0.5 2.9 0.3 1.5 1.1 0.3 2.4 0.9 0.1 0 0 0.5 4.5 3.4 1.3 0.7 0.1 0 0.5 0.7-1.1 1.1 3.4 1.5 0.1 0 1.3 1.3 1 2.5 0.1 0 0.4 2.7-0.4 1.8-2 3.1-5 1.3-8.7 2.9-1.4-0.2-1-0.5-0.6-0.8-0.2-1.1-9.6-5.9-5.4-1.8-4.1 1.8-0.7 2.6 0.5 2.7 0 0.1 1.9 4.9 0 0.1 0.3 2.5-0.1 2.4-0.4 2.4-7.1 20.3-1.4 6-0.6 5.3-0.8 2.4-1.5 2.3-0.4 0.3-1.6 1.4-2.2 1.3-1.7 1.7-0.7 2.9 0.7 9.5-0.5 4.4-2.7 3.8-3.6 1.6-4.2 0.4-11.8-1-0.1 1.8 3.1 5.2 0.2 2.2-2.7-1.1-3.2-2.2-1.3-1.2-3.1 1-0.5 2.8 1.5 6.2-0.1 3.1-3.1 13.1-1 2.8-1.8 1.1-2.8-0.7-4.3-4.3-0.4-1.4-0.2-3.5-0.4-1-1.5-0.1-9-2-1.4 2.1 0.4 2.9 0.9 3.2 0.1 2.7-1.6 2.4-2.5 0.9-2.8-0.4-2.5-1.6-1.3-2.4-2.5-6.3-1.5-0.5-0.6 1.8-1.5 9.8-1.1 3.3-1.4 2.2-2 1.4-3.3 1-5.8 0.6-5.3-0.4-10.7-2.3-5.9 0.5-1.7 3.9-0.2 6-1.5 6.3-1.7 1.1-1.5-0.2-1.1-0.5-0.5-0.2-1.9-0.2-2.4 1.1-1.9 1.7-1.5 2-4.8 8.6-0.6 2.2 0.1 2.1 1.6 3.6 0.6 1.9-0.5 2.9-2.8 8.5-1.4 2.5-2.6 1.3-2.7 0.3-2.3 0.7-1.3 3 0.6 3.4 2.2 1.2 2.4 0.9 0.9 2.3-1.3 2.5-2-0.2-1.7 0.3-0.5 3.7 0.6 2.7 4.1 7.7 1.1 2.7 1.2 5.1 1.3 2.5 1.2 1.1 2.4 1.6 0.9 1.4 0.4 1.2 0.7 3.8 1.9 6.5 1.4 3.1 1.8 1.4 1.8 0.5 0.5 0.9-0.6 1.2-1.4 1.5-1 1.4 0.2 1.2 0.8 1.2 0.6 1.6 3.3 24.7 1.8 6.4 3.4 4.6 4.7 1.3 0.6-5.1-2.7-12.9 0-6.8 0.7-3.6 1.6-2.3 3.2-0.1 2.7 2.2 2 2.9 1.2 2.3 0-0.2 0.5-1 0-0.2 0.9 1.3 0.1 1-0.2 0.9 0.1 0.8 2.1 2.1 0.3 0 1 4.8 0.7 1.5 3.2 11.3 0.8 3.9 0.4 0.5 1.3 0.3 0.4 0.6 0.1 4.5 0.6 1.6 1.9 2.1 1.8 0.7 1.9 0.4 1.9 0.9 0.9 1.7 0 1.5 0.5 0.5 2.3-1.3 0.8-1.1 0.5-1.5 0.7-1.2 1.3-0.6 1 0.2 1 0.4 1 0.2 1-0.2 1.9-0.7 3.8-0.9 1.8-1.1 1-1.2 2.4-2.2 1-1.1 2.4-3.6 0.1-0.6-0.1-0.7 0.1-0.7 0.7-0.7 0.5 0 1.3 0.1 0.4 0 2.1-2.3 0.6-1.4-0.5-1.8-1.9-4.7-2.1-10.6-2.1-4.9-0.8-6.2 2.7-7.5 4.1-7.2 3.7-5.1 2.3-2 7.8-3.4 2.3-1.6 1.8-2.1 3.2-5.4 0.2-6-3.7-17.9-0.2-5.9 0.3-3.3 0.9-2 1.9-0.1 1.8 2.1 1.8 2.9 5.9 6.7 2.2 1.2 3.3-0.9 2.4-2.1 4.6-6.5 2.3-2.6 6-2.1 2.8 4.3 1.4 6 2 2.6 2.1-2.1 1.8-7.1 2.3-1.4 2.9 1.6 0.1 0.6 0.3 2.7-1.7 6.6 0.4 5.1 5.4 17.6 0.9 7.5 0.6 2.3 0.8 1.2 1.8 1.8 0.8 1.3 0.2 1.2-0.2 2.1 0.2 1.1 0.7 1 1.8 1.5 0.6 0.7 0.1 1.5-0.4 3 0.1 1.5 0.7 2.6 0.6 1.5 0.1 1.5-0.9 2.8-2.6 5.3-0.6 2.3-0.1 6.2 3.6 21.7-0.1 10.7 1.1 5.2 2.6 4 4.7 1.9 2.1 2.6 1.2 11.9 1 4.7 1.6 2.3 3.8 3.3 1.6 2.3 0.6 2.4 1 11.8-0.3 8.9 0.5 2.6 1.8 4.7 0.3 2.7 8.2 49.9-0.2 3.9-1.6 0.7-2.1 0-1.7 1.5 3.2 10.3 1.8 10 0.3 1.4 0.1 1.4z m-90.5 33.1l0.4 6.9 5.1 10 1.3 6.1-0.3 3.2-1.3 6.4-0.3 3.4-1.3 2.6-3.1 0.1-3.6-0.6-2.7 0.4 0 0.8 0.6 1.2 0.1 1.2-1.7 0.9-1.5-0.2-1.2-0.8-0.8-1.3-0.7-2.7-0.4-1 0.1-1.1 2.2-3.2 0.3-1.6 0.1-3.6-0.7-6.1-3-10.1 0.8-5.7 1.3-3 1.3-1.4 1.6 0.1 2.1 1.7 0.7 1.9-0.7 2.4-1 2.4-0.5 2.1 2.2-2.7 0.9-3.6-0.2-3.9-1-3.4 2.6-0.4 2.3-0.6 0 2.4 0 0.8z m-398.7-3.2l3.3 2.2 0.8 4.2-1.7 2.7-4.3-2.3-7.2-8.6 0-0.6 0.9-1 0.9-2.8 0-3-1.5-5.1-0.3-2.3-1-2.7 0.2-1.4 1.6-0.1 0.6 0.4 0.5 0.7 0.4 0.9 0.5 2.2 1.4 10.2 1.6 4.5 3.3 1.9z m391.9-13l-0.5 2.5-1.9 3.9-1.1 5.2-3.1 8.4-1.2 1.4-1.2-2.5 2.2-12.7-1-7.8 0.5-2.6 1.1-2 3.3-3.8 0.6 0.5 0.2 0.5 0.2 1.2 1.7 5.7 0.2 2.1z m-183-18.3l0 3.1 0.6 0.7 0.5 1.1 0.8 2.4-2.3 0.5-1.4 3.5-1.1-0.8-1 0-1.2 3.1-2.3 3.3-2.8 2.2-2.5-0.2 0-1.1 1-0.3 1.8-0.6 1.2-0.2-1.2-1.7-0.8-0.8-1-0.7 0.9-1 0-1.2-0.2-1.4 0.3-1.6 0.6-1 0.6-0.8 9.5-6.5z m-36.9 7.3l3.1-5.8 2.4-2.8 3.3-0.8-0.6 3.4-3.5 6-3.4 11.9-1.3 1.7-1.3 0.8-0.6-0.3 0-7.1 0.5-3.7 1.4-3.3z m7.8-16.7l-0.9 3.8-4 4.6-1 3.2-0.9 0 0.9-3.3 1.8-4.4 2.2-3.5 1.9-0.4z m6.8 1.1l5.3 5.7 1.9 4.1-1.4 4.8-3.1 1.9-3.2 3.8-2.3 1.1-1.9-1-1.1-2.2 0-2.6 0.7-2.2 1-1.6 0.7-1.9 0.4-3.2-0.4-4.8 0.6-1.5 1.8-1.5 1 1.1z m15.4-3.2l-0.9-1-6 3.6-0.8 1.5-0.9 0 0.3-3.6 0.8-3.3 1.6-2.4 2.6-1 1.7-1.1 3.8-4.3 1.8 0.1 1.2-1.8 1.6-1.6 1.7-0.9 1.2 0.2-2.8 9.4 0-1.5-0.2-1-0.8-1.8-1.7 5.3-0.8 5.8-1.2 5.2-3.1 3.6-2.6 0.9-1.5-0.8-0.6-1.7-0.2-2 0.8-1.4 5-4.4z m56.2-21.8l0.7-1 0.6-0.2 0.4 0.7 0.4 1.4 0 8.2-1.1 3.6-2.8 0.7-1.4-2.3 0.1-4.3 1.1-4.6 1.1-3.4 0.9 1.2z m4.9 2.9l0.1-8.2 0.8-3 2 0.9 0.1 2.8-0.4 3.2-1 2.8-1.6 1.5z m-3.4-6.3l-2.2-0.9 0.4-2.1 1.5-2.6 0.9-2.1 0.5-7 0.8-3.7 1.5-2.4 1 1.1 0.8 2.3 0.6 2.8 0.1 3.1-0.6 3.2-5.3 8.3z m27.7-19.9l1.1 3.8 2.1 1.9 1.4 5.6 0.1 3.5 0.7 5-2.3 4.7-1.4 2.3-0.9 1.9-1.8 3.5-2.9 2.5-2.1 1.3-1.8 0.4-1.5 2.7-2.8 1.7-3.4-0.2-2.3-0.5-1.6-1.1-0.9-2.3 4.1-4.9 2.6-4 1-2.6 1.3-7.4 0.1-10.7 0.8-11.9 2.4-0.4 4.9 2.5 3.1 2.7z m-74.8-10.3l-0.8-0.6-1 0.2-0.8-0.3-0.3-2 0.4-0.9 0.8-0.3 1 0.2 0.7 0.5 1.9 2.1 2.1 3.8 1.5 4.2 0.4 3.6-1.6-3.1-0.3-1.2-1 2.8 0.9 6.1-1 2.6-0.7-1.3-0.1-1.7 0-1.7-0.1-1.5 0.9 0-0.9-2.8-1.1-6-0.9-2.7z m4 0l0.8-9 0.4 0.4 0.7 0.1 0.6 1.7 0.2 1.6 0.1 3-1.5 0.8-0.5 0.4-0.8 1z m72.2-12.1l5.9-1.7 1.5 3-1.4 3.5-2.9 2-2.9 1.3-3.6 0.2-2.9-1.8 1.4-4.3 4.9-2.2z m43.7-12.6l12.6 16.5 1 6.5-1.2 5.2-6.7 0.8-4.5-2.6-4.2-6.1-2.4-6.1-0.8-4.9 3.3-7.8 2.9-1.5z m-95.7 13.9l6.2 5.6 2.9 3.7-2.8 14.5 0.1 24.7-1.1 3.9-7.5 11.7-2.5 2.1-0.2-0.6-0.8-1.5-3.3 3.4-1.3 0.8-3.7 6.3-1.2 0.4-1.8 1-1.8 0.7-1.4-0.1-1.2-3.4 1.7-4.4 2.6-4.6 1.7-4.2-7.9 11.5-2.2 0.5-1-3.1 0.6-4.3 1.6-4.4 2.1-3.3-1.6-3.4 1.3-5.6 5.9-12.9 0.7-2.5 0.5-2.9 0-9 0.9-2.6-1.2-4.5-0.3-3 0.6-1.9 0-1-1.6-2.8-1.6-9.3-1.6-3.6-2.3-2.1-8-5.7-2.3-0.6-0.7-5.6 0.4-5.4 3.1-12.6 1-1.7 1.5-1.1 2.4-1 2.5-0.6 2.8-0.3 1.4 4.6 1.6 5.4 1.7 4.3 2.5 5 2 3.6 2.2 2.7 2.2 3.6 1.1 7.5 1.7 4.7 3.4 3.4z m-20.6-54.3l2.6 3.2 2.1 3.1-2.2 0.5-4.9-1-5.2-0.3-4.2 3.8-2.1 0.8-2.1 2.2-0.3 3.8 0.7 2.4-1.9 2.6-1.4-1.6-1.8-1.7-0.3-1.5-0.5-1.5-1.4-1-3.9-1.2 1.2-1.8 0.3-1.4-0.5-4.2 0.1-2.8 0.4-2.7 1-2.1 1.9-0.8 4.9 0.9 2.3-0.3 1-2.2 1.2-0.1 5.6-0.1 2 0.8 2.8 3 2.6 1.2z m3.2-15.9l-3.7 0.1-1.1-0.1 1.6 1.1 1.4 1.3 1.1 1.5 0.7 1.5-4.4-0.5-1.3-0.6-1.1-1.1-1.7-3.1-1.2-1-1.4-0.5-0.6 0.3-0.5 0.6-1.2 0.5-1.6 0.2-3.8 0.1-1.5-0.3-2.3-3.5 2.9-4.9 4.7-3.8 3.5-0.4 3 2.6 5.4 6.7 3.1 2.4 0 0.9z m-22.2-17.8l0.9 1.5-0.2 1.1-2.2 2.2-3.1 3.9-1.2 0.7-1.2-6.2-0.8-2.2 5.5-0.1 1.2-0.3 1.1-0.6z m1.9-38.9l-2.5 1.2-2.7-0.8-2.6-1.9-4.5-4.6-1.5-2.2 0.5-1.4 3.6 0 5.2 1.8 6.7 3.6 5.4 4 1.2 3.4-5.2-3.8-2.8-1.1-0.8 1.8z" id="BD" name="Bangladesh">
  </path>
 </g>
 <g id="points">
  <circle class="21.032956360336193|88.25284266769596" cx="206" cy="910" id="0">
  </circle>
  <circle class="23.386887994489065|90.56337347401504" cx="532.7" cy="550.5" id="1">
  </circle>
  <circle class="26.329302537180155|92.41179811907031" cx="794" cy="91.9" id="2">
  </circle>
 </g>
 <g id="label_points">
  <circle class="Bangladesh" cx="408.5" cy="422.5" id="BD">
  </circle>
 </g>
</svg>